# xmcd
#
# Track frame offsets: 
#        207
#        15705
#        30267
#        51570
#        72287
#        90210
#        102560
#        126777
#        143550
#        159890
#        176145
#        192172
#        210320
#        234917
#
# Disc length: 3281 seconds
#
# Revision: 6
# Processed by: cddbd v1.5.2PL0 Copyright (c) Steve Scherf et al.
# Submitted via: ExactAudioCopy v1.3
#
DISCID=ae0ccf0e
DTITLE=Johnny Winter - Hey, Where's Your Brother?
DYEAR=1992
DGENRE=Blues
TTITLE0=Johnny Guitar
TTITLE1=She Likes To Boogie Real Low
TTITLE2=White Line Blues
TTITLE3=Please Come Home For Christmas
TTITLE4=Hard Way
TTITLE5=You Must Have a Twin
TTITLE6=You Keep Sayin' That You're Leavin'
TTITLE7=Treat Me Like You Wanta
TTITLE8=Sick and Tired
TTITLE9=Blues This Bad
TTITLE10=No More Doggin'
TTITLE11=Check Out Her Mama
TTITLE12=I Got My Brand On You
TTITLE13=One Step Forward (Two Steps Back)
EXTD=LABEL =Virgin Records Ltd.\nID =077778651222\nUPC =07777-86512
EXTD=22\nCOPYRIGHT =1992
EXTT0=
EXTT1=
EXTT2=
EXTT3=
EXTT4=
EXTT5=
EXTT6=
EXTT7=
EXTT8=
EXTT9=
EXTT10=
EXTT11=
EXTT12=
EXTT13=
PLAYORDER=
